<svg width="28" height="27" viewBox="0 0 28 27" fill="none" xmlns="http://www.w3.org/2000/svg">
<path d="M23.3333 25.4998L14 16.1665L10.8667 19.2998C11.0444 19.6332 11.1667 19.9887 11.2333 20.3665C11.3 20.7443 11.3333 21.1221 11.3333 21.4998C11.3333 22.9665 10.8111 24.2221 9.76667 25.2665C8.72223 26.3109 7.46667 26.8332 6 26.8332C4.53334 26.8332 3.27778 26.3109 2.23334 25.2665C1.18889 24.2221 0.666672 22.9665 0.666672 21.4998C0.666672 20.0332 1.18889 18.7776 2.23334 17.7332C3.27778 16.6887 4.53334 16.1665 6 16.1665C6.37778 16.1665 6.75556 16.1998 7.13334 16.2665C7.51112 16.3332 7.86667 16.4554 8.2 16.6332L11.3333 13.4998L8.2 10.3665C7.86667 10.5443 7.51112 10.6665 7.13334 10.7332C6.75556 10.7998 6.37778 10.8332 6 10.8332C4.53334 10.8332 3.27778 10.3109 2.23334 9.2665C1.18889 8.22206 0.666672 6.9665 0.666672 5.49984C0.666672 4.03317 1.18889 2.77762 2.23334 1.73317C3.27778 0.688726 4.53334 0.166504 6 0.166504C7.46667 0.166504 8.72223 0.688726 9.76667 1.73317C10.8111 2.77762 11.3333 4.03317 11.3333 5.49984C11.3333 5.87761 11.3 6.25539 11.2333 6.63317C11.1667 7.01095 11.0444 7.3665 10.8667 7.69984L27.3333 24.1665V25.4998H23.3333ZM18 12.1665L15.3333 9.49984L23.3333 1.49984H27.3333V2.83317L18 12.1665ZM6 8.1665C6.73334 8.1665 7.36112 7.90539 7.88334 7.38317C8.40556 6.86095 8.66667 6.23317 8.66667 5.49984C8.66667 4.7665 8.40556 4.13873 7.88334 3.6165C7.36112 3.09428 6.73334 2.83317 6 2.83317C5.26667 2.83317 4.63889 3.09428 4.11667 3.6165C3.59445 4.13873 3.33334 4.7665 3.33334 5.49984C3.33334 6.23317 3.59445 6.86095 4.11667 7.38317C4.63889 7.90539 5.26667 8.1665 6 8.1665ZM14 14.1665C14.1778 14.1665 14.3333 14.0998 14.4667 13.9665C14.6 13.8332 14.6667 13.6776 14.6667 13.4998C14.6667 13.3221 14.6 13.1665 14.4667 13.0332C14.3333 12.8998 14.1778 12.8332 14 12.8332C13.8222 12.8332 13.6667 12.8998 13.5333 13.0332C13.4 13.1665 13.3333 13.3221 13.3333 13.4998C13.3333 13.6776 13.4 13.8332 13.5333 13.9665C13.6667 14.0998 13.8222 14.1665 14 14.1665ZM6 24.1665C6.73334 24.1665 7.36112 23.9054 7.88334 23.3832C8.40556 22.8609 8.66667 22.2332 8.66667 21.4998C8.66667 20.7665 8.40556 20.1387 7.88334 19.6165C7.36112 19.0943 6.73334 18.8332 6 18.8332C5.26667 18.8332 4.63889 19.0943 4.11667 19.6165C3.59445 20.1387 3.33334 20.7665 3.33334 21.4998C3.33334 22.2332 3.59445 22.8609 4.11667 23.3832C4.63889 23.9054 5.26667 24.1665 6 24.1665Z" fill="#D5ACF5"/>
</svg>
