<svg width="22" height="25" viewBox="0 0 22 25" fill="none" xmlns="http://www.w3.org/2000/svg">
<path d="M3.00001 24.1668C2.26668 24.1668 1.63912 23.9059 1.11734 23.3842C0.594677 22.8615 0.333344 22.2335 0.333344 21.5002V9.50016C0.333344 9.07794 0.42801 8.67794 0.617343 8.30016C0.805788 7.92239 1.06668 7.61127 1.40001 7.36683L9.40001 1.36683C9.64445 1.18905 9.90001 1.05572 10.1667 0.966829C10.4333 0.87794 10.7111 0.833496 11 0.833496C11.2889 0.833496 11.5667 0.87794 11.8333 0.966829C12.1 1.05572 12.3556 1.18905 12.6 1.36683L20.6 7.36683C20.9333 7.61127 21.1947 7.92239 21.384 8.30016C21.5725 8.67794 21.6667 9.07794 21.6667 9.50016V21.5002C21.6667 22.2335 21.4058 22.8615 20.884 23.3842C20.3613 23.9059 19.7333 24.1668 19 24.1668H13.6667V14.8335H8.33334V24.1668H3.00001Z" fill="#7C00DE"/>
</svg>
