<svg width="28" height="27" viewBox="0 0 28 27" fill="none" xmlns="http://www.w3.org/2000/svg">
<path d="M5.79999 20.2998C6.93332 19.4332 8.19999 18.7498 9.59999 18.2498C11 17.7498 12.4667 17.4998 14 17.4998C15.5333 17.4998 17 17.7498 18.4 18.2498C19.8 18.7498 21.0667 19.4332 22.2 20.2998C22.9778 19.3887 23.5833 18.3554 24.0167 17.1998C24.45 16.0443 24.6667 14.8109 24.6667 13.4998C24.6667 10.5443 23.6278 8.02761 21.55 5.94984C19.4722 3.87206 16.9555 2.83317 14 2.83317C11.0444 2.83317 8.52777 3.87206 6.44999 5.94984C4.37221 8.02761 3.33332 10.5443 3.33332 13.4998C3.33332 14.8109 3.54999 16.0443 3.98332 17.1998C4.41666 18.3554 5.02221 19.3887 5.79999 20.2998ZM14 14.8332C12.6889 14.8332 11.5833 14.3832 10.6833 13.4832C9.78332 12.5832 9.33332 11.4776 9.33332 10.1665C9.33332 8.85539 9.78332 7.74984 10.6833 6.84984C11.5833 5.94984 12.6889 5.49984 14 5.49984C15.3111 5.49984 16.4167 5.94984 17.3167 6.84984C18.2167 7.74984 18.6667 8.85539 18.6667 10.1665C18.6667 11.4776 18.2167 12.5832 17.3167 13.4832C16.4167 14.3832 15.3111 14.8332 14 14.8332ZM14 26.8332C12.1555 26.8332 10.4222 26.4832 8.79999 25.7832C7.17777 25.0832 5.76666 24.1332 4.56666 22.9332C3.36666 21.7332 2.41666 20.3221 1.71666 18.6998C1.01666 17.0776 0.666656 15.3443 0.666656 13.4998C0.666656 11.6554 1.01666 9.92206 1.71666 8.29984C2.41666 6.67761 3.36666 5.2665 4.56666 4.0665C5.76666 2.8665 7.17777 1.9165 8.79999 1.2165C10.4222 0.516504 12.1555 0.166504 14 0.166504C15.8444 0.166504 17.5778 0.516504 19.2 1.2165C20.8222 1.9165 22.2333 2.8665 23.4333 4.0665C24.6333 5.2665 25.5833 6.67761 26.2833 8.29984C26.9833 9.92206 27.3333 11.6554 27.3333 13.4998C27.3333 15.3443 26.9833 17.0776 26.2833 18.6998C25.5833 20.3221 24.6333 21.7332 23.4333 22.9332C22.2333 24.1332 20.8222 25.0832 19.2 25.7832C17.5778 26.4832 15.8444 26.8332 14 26.8332Z" fill="#D5ACF5"/>
</svg>
